<?xml version="1.0" encoding="UTF-8"?>
<svg xmlns="http://www.w3.org/2000/svg" xmlns:xlink="http://www.w3.org/1999/xlink" width="223.1pt" height="433pt" viewBox="0 0 223.1 433" version="1.1">
<defs>
<clipPath id="clip1">
  <path d="M 7 0 L 223.101563 0 L 223.101563 216 L 7 216 Z M 7 0 "/>
</clipPath>
</defs>
<g id="surface1">
<path style=" stroke:none;fill-rule:evenodd;fill:white;fill-opacity:1;" d="M 0.078125 293.367188 L 0.078125 258.523438 C 0.078125 255.566406 0.75 253.339844 2.097656 251.859375 C 3.421875 250.367188 5.179688 249.636719 7.332031 249.636719 C 9.621094 249.636719 11.421875 250.367188 12.75 251.859375 C 14.085938 253.339844 14.761719 255.566406 14.761719 258.539063 L 14.761719 294.21875 C 14.761719 298.269531 15.210938 301.664063 16.109375 304.378906 C 17.027344 307.101563 18.632813 309.210938 20.933594 310.71875 C 23.242188 312.207031 26.488281 312.96875 30.652344 312.96875 C 36.371094 312.96875 40.421875 311.433594 42.808594 308.402344 C 45.167969 305.332031 46.363281 300.703125 46.363281 294.507813 L 46.363281 258.539063 C 46.363281 255.515625 47.03125 253.292969 48.34375 251.84375 C 49.648438 250.367188 51.417969 249.636719 53.625 249.636719 C 55.828125 249.636719 57.609375 250.367188 58.984375 251.828125 C 60.351563 253.292969 61.03125 255.515625 61.03125 258.539063 L 61.03125 293.390625 C 61.03125 299.0625 60.484375 303.800781 59.378906 307.585938 C 58.28125 311.371094 56.199219 314.714844 53.132813 317.585938 C 50.496094 320.003906 47.433594 321.785156 43.9375 322.882813 C 40.449219 323.992188 36.363281 324.570313 31.671875 324.570313 C 26.109375 324.570313 21.320313 323.957031 17.292969 322.746094 C 13.273438 321.542969 9.976563 319.6875 7.445313 317.175781 C 4.910156 314.65625 3.058594 311.402344 1.867188 307.492188 C 0.683594 303.535156 0.078125 298.847656 0.078125 293.367188 Z M 0.078125 293.367188 "/>
<path style=" stroke:none;fill-rule:evenodd;fill:white;fill-opacity:1;" d="M 100.296875 312.394531 L 88.65625 266.222656 L 88.65625 316.265625 C 88.65625 319.011719 88.050781 321.109375 86.824219 322.480469 C 85.597656 323.882813 83.960938 324.570313 81.933594 324.570313 C 79.960938 324.570313 78.363281 323.882813 77.113281 322.507813 C 75.875 321.136719 75.253906 319.058594 75.253906 316.265625 L 75.253906 258.933594 C 75.253906 255.761719 76.066406 253.628906 77.730469 252.519531 C 79.355469 251.433594 81.570313 250.871094 84.375 250.871094 L 88.902344 250.871094 C 91.644531 250.871094 93.613281 251.136719 94.855469 251.625 C 96.082031 252.125 96.984375 253.011719 97.597656 254.289063 C 98.183594 255.570313 98.851563 257.660156 99.621094 260.5625 L 110.152344 300.242188 L 120.664063 260.5625 C 121.433594 257.660156 122.097656 255.570313 122.695313 254.289063 C 123.28125 253.011719 124.199219 252.125 125.433594 251.625 C 126.675781 251.136719 128.648438 250.871094 131.394531 250.871094 L 135.929688 250.871094 C 138.726563 250.871094 140.9375 251.433594 142.59375 252.519531 C 144.25 253.628906 145.070313 255.761719 145.070313 258.933594 L 145.070313 316.265625 C 145.070313 319.019531 144.445313 321.109375 143.203125 322.480469 C 141.996094 323.882813 140.339844 324.570313 138.277344 324.570313 C 136.339844 324.570313 134.75 323.882813 133.515625 322.480469 C 132.25 321.109375 131.652344 319.011719 131.652344 316.265625 L 131.652344 266.222656 L 120.023438 312.394531 C 119.253906 315.394531 118.628906 317.617188 118.160156 318.996094 C 117.664063 320.40625 116.78125 321.675781 115.507813 322.828125 C 114.226563 323.992188 112.441406 324.570313 110.152344 324.570313 C 108.449219 324.570313 106.984375 324.203125 105.789063 323.441406 C 104.605469 322.703125 103.691406 321.769531 103.039063 320.613281 C 102.371094 319.441406 101.847656 318.175781 101.460938 316.777344 C 101.078125 315.375 100.707031 313.917969 100.296875 312.394531 Z M 100.296875 312.394531 "/>
<path style=" stroke:none;fill-rule:evenodd;fill:white;fill-opacity:1;" d="M 178.414063 258.429688 L 206.65625 301.136719 L 206.65625 258.035156 C 206.65625 255.242188 207.25 253.136719 208.449219 251.707031 C 209.652344 250.332031 211.257813 249.636719 213.292969 249.636719 C 215.390625 249.636719 217.050781 250.332031 218.253906 251.707031 C 219.457031 253.136719 220.0625 255.242188 220.0625 258.035156 L 220.0625 315.011719 C 220.0625 321.378906 217.4375 324.570313 212.199219 324.570313 C 210.882813 324.570313 209.707031 324.375 208.65625 323.992188 C 207.609375 323.605469 206.605469 323.023438 205.683594 322.191406 C 204.777344 321.378906 203.917969 320.40625 203.136719 319.300781 C 202.351563 318.203125 201.558594 317.070313 200.769531 315.90625 L 173.230469 273.734375 L 173.230469 316.164063 C 173.230469 318.9375 172.570313 321.019531 171.285156 322.4375 C 170.011719 323.855469 168.359375 324.570313 166.34375 324.570313 C 164.28125 324.570313 162.589844 323.828125 161.347656 322.398438 C 160.082031 320.992188 159.46875 318.898438 159.46875 316.164063 L 159.46875 260.257813 C 159.46875 257.875 159.726563 256.019531 160.257813 254.683594 C 160.886719 253.199219 161.925781 251.984375 163.386719 251.035156 C 164.835938 250.097656 166.394531 249.636719 168.070313 249.636719 C 169.40625 249.636719 170.523438 249.84375 171.464844 250.269531 C 172.414063 250.707031 173.230469 251.28125 173.9375 252.007813 C 174.644531 252.726563 175.382813 253.667969 176.117188 254.808594 C 176.855469 255.976563 177.625 257.175781 178.414063 258.429688 Z M 178.414063 258.429688 "/>
<path style=" stroke:none;fill-rule:evenodd;fill:white;fill-opacity:1;" d="M 0.078125 345.539063 L 2.742188 345.539063 L 2.742188 359 C 2.742188 360.363281 3.226563 361.390625 4.195313 362.101563 C 5.179688 362.800781 6.246094 363.152344 7.40625 363.152344 C 8.585938 363.152344 9.660156 362.800781 10.652344 362.101563 C 11.644531 361.410156 12.128906 360.382813 12.128906 359 L 12.128906 345.539063 L 14.804688 345.539063 L 14.804688 359 C 14.804688 360.945313 14.054688 362.433594 12.546875 363.5 C 11.027344 364.546875 9.371094 365.085938 7.542969 365.128906 L 7.394531 365.128906 C 5.644531 365.128906 4.046875 364.636719 2.582031 363.660156 C 1.109375 362.683594 0.273438 361.136719 0.078125 359 Z M 0.078125 345.539063 "/>
<path style=" stroke:none;fill-rule:evenodd;fill:white;fill-opacity:1;" d="M 24.0625 345.539063 L 27.128906 345.539063 L 36.535156 360.851563 L 36.535156 345.539063 L 38.980469 345.539063 L 38.980469 364.523438 L 36.109375 364.523438 L 26.503906 349.398438 L 26.503906 364.523438 L 24.0625 364.523438 Z M 24.0625 345.539063 "/>
<path style=" stroke:none;fill-rule:evenodd;fill:white;fill-opacity:1;" d="M 48.441406 364.523438 L 50.886719 364.523438 L 50.886719 345.539063 L 48.441406 345.539063 Z M 48.441406 364.523438 "/>
<path style=" stroke:none;fill-rule:evenodd;fill:white;fill-opacity:1;" d="M 58.964844 345.539063 L 61.601563 345.539063 L 67.136719 361.46875 L 72.4375 345.539063 L 75.117188 345.539063 L 68.359375 364.523438 L 65.679688 364.523438 Z M 58.964844 345.539063 "/>
<path style=" stroke:none;fill-rule:evenodd;fill:white;fill-opacity:1;" d="M 83.332031 345.539063 L 96.40625 345.539063 L 96.40625 347.554688 L 85.789063 347.554688 L 85.789063 353.710938 L 96.027344 353.710938 L 96.027344 355.9375 L 85.789063 355.9375 L 85.789063 362.273438 L 96.820313 362.273438 L 96.820313 364.523438 L 83.332031 364.523438 Z M 83.332031 345.539063 "/>
<path style=" stroke:none;fill-rule:evenodd;fill:white;fill-opacity:1;" d="M 105.871094 345.539063 L 115.507813 345.539063 C 116.847656 345.539063 117.980469 345.972656 118.917969 346.832031 C 119.839844 347.691406 120.40625 348.898438 120.605469 350.425781 C 120.605469 350.742188 120.574219 351.078125 120.542969 351.433594 C 120.511719 351.792969 120.441406 352.148438 120.335938 352.511719 C 120.183594 352.992188 119.921875 353.472656 119.558594 353.929688 C 119.199219 354.382813 118.664063 354.785156 117.945313 355.132813 C 118.894531 355.589844 119.511719 356.210938 119.789063 356.957031 C 120.046875 357.722656 120.195313 358.488281 120.207031 359.289063 L 120.207031 360.304688 C 120.195313 361.042969 120.226563 361.734375 120.300781 362.394531 C 120.378906 363.035156 120.675781 363.535156 121.226563 363.910156 L 121.226563 364.523438 L 118.15625 364.523438 C 118.03125 364.183594 117.945313 363.835938 117.886719 363.457031 C 117.832031 363.109375 117.777344 362.730469 117.761719 362.355469 C 117.75 362.179688 117.730469 361.984375 117.730469 361.800781 C 117.714844 361.613281 117.714844 361.421875 117.714844 361.246094 L 117.714844 360.96875 C 117.683594 359.875 117.554688 358.867188 117.273438 357.992188 C 117.015625 357.105469 116.140625 356.566406 114.675781 356.347656 L 108.347656 356.347656 L 108.347656 364.523438 L 105.871094 364.523438 Z M 114.882813 354.085938 C 114.941406 354.117188 114.984375 354.117188 115.046875 354.117188 L 115.207031 354.117188 C 115.992188 354.117188 116.660156 353.789063 117.199219 353.128906 C 117.75 352.46875 118.03125 351.730469 118.054688 350.945313 L 118.054688 350.792969 C 118.03125 350.089844 117.730469 349.421875 117.167969 348.816406 C 116.589844 348.199219 115.613281 347.851563 114.265625 347.761719 L 108.347656 347.761719 L 108.347656 354.085938 Z M 114.882813 354.085938 "/>
<path style=" stroke:none;fill-rule:evenodd;fill:white;fill-opacity:1;" d="M 131.105469 358.398438 C 131.105469 359.949219 131.617188 361.074219 132.652344 361.816406 C 133.667969 362.558594 134.8125 362.949219 136.0625 362.996094 L 136.234375 362.996094 C 137.382813 362.996094 138.378906 362.738281 139.316406 362.234375 C 140.238281 361.726563 140.773438 360.988281 140.910156 360.050781 C 140.925781 359.972656 140.941406 359.902344 140.941406 359.851563 L 140.941406 359.648438 C 140.941406 358.429688 140.429688 357.613281 139.429688 357.195313 C 138.410156 356.765625 137.242188 356.4375 135.957031 356.183594 C 135.796875 356.132813 135.652344 356.113281 135.523438 356.078125 C 135.375 356.058594 135.238281 356.03125 135.09375 355.988281 C 133.558594 355.664063 132.171875 355.140625 130.902344 354.425781 C 129.664063 353.71875 129.101563 352.316406 129.253906 350.230469 C 129.355469 348.898438 129.980469 347.742188 131.105469 346.765625 C 132.230469 345.804688 133.855469 345.3125 136.007813 345.3125 C 138.152344 345.3125 139.867188 345.804688 141.164063 346.792969 C 142.445313 347.777344 143.035156 349.207031 142.941406 351.027344 L 140.5 351.027344 L 140.5 350.757813 C 140.5 349.675781 140.054688 348.859375 139.136719 348.277344 C 138.222656 347.71875 137.234375 347.410156 136.148438 347.371094 L 136.007813 347.371094 C 134.921875 347.371094 133.964844 347.632813 133.082031 348.171875 C 132.210938 348.695313 131.753906 349.503906 131.707031 350.640625 C 131.839844 351.554688 132.363281 352.199219 133.269531 352.582031 C 134.171875 352.953125 135.238281 353.261719 136.425781 353.519531 C 136.648438 353.585938 136.855469 353.625 137.070313 353.664063 C 137.289063 353.730469 137.523438 353.78125 137.746094 353.832031 C 139.144531 354.152344 140.457031 354.660156 141.648438 355.324219 C 142.855469 355.988281 143.566406 357.160156 143.761719 358.824219 C 143.863281 360.878906 143.132813 362.429688 141.527344 363.527344 C 139.945313 364.597656 138.175781 365.148438 136.253906 365.1875 L 136.160156 365.1875 C 134.25 365.1875 132.515625 364.632813 130.929688 363.527344 C 129.339844 362.429688 128.582031 360.714844 128.628906 358.398438 Z M 131.105469 358.398438 "/>
<path style=" stroke:none;fill-rule:evenodd;fill:white;fill-opacity:1;" d="M 152.40625 364.523438 L 154.863281 364.523438 L 154.863281 345.539063 L 152.40625 345.539063 Z M 152.40625 364.523438 "/>
<path style=" stroke:none;fill-rule:evenodd;fill:white;fill-opacity:1;" d="M 169.058594 347.554688 L 162.71875 347.554688 L 162.71875 345.539063 L 177.65625 345.539063 L 177.65625 347.554688 L 171.714844 347.554688 L 171.714844 364.523438 L 169.058594 364.523438 Z M 169.058594 347.554688 "/>
<path style=" stroke:none;fill-rule:evenodd;fill:white;fill-opacity:1;" d="M 188.757813 345.539063 L 191.816406 345.539063 L 198.746094 364.523438 L 195.902344 364.523438 L 193.847656 359 L 186.691406 359 L 184.851563 364.523438 L 182.007813 364.523438 Z M 193.046875 356.757813 L 190.390625 348.792969 L 187.289063 356.757813 Z M 193.046875 356.757813 "/>
<path style=" stroke:none;fill-rule:evenodd;fill:white;fill-opacity:1;" d="M 207.828125 358.398438 C 207.828125 359.949219 208.34375 361.074219 209.367188 361.816406 C 210.40625 362.558594 211.539063 362.949219 212.78125 362.996094 L 212.960938 362.996094 C 214.09375 362.996094 215.121094 362.738281 216.042969 362.234375 C 216.980469 361.726563 217.503906 360.988281 217.640625 360.050781 C 217.65625 359.972656 217.65625 359.902344 217.65625 359.851563 L 217.65625 359.648438 C 217.65625 358.429688 217.167969 357.613281 216.140625 357.195313 C 215.136719 356.765625 213.980469 356.4375 212.683594 356.183594 C 212.53125 356.132813 212.371094 356.113281 212.246094 356.078125 C 212.09375 356.058594 211.957031 356.03125 211.816406 355.988281 C 210.292969 355.664063 208.886719 355.140625 207.636719 354.425781 C 206.382813 353.71875 205.828125 352.316406 205.992188 350.230469 C 206.09375 348.898438 206.691406 347.742188 207.828125 346.765625 C 208.953125 345.804688 210.585938 345.3125 212.726563 345.3125 C 214.878906 345.3125 216.589844 345.804688 217.902344 346.792969 C 219.183594 347.777344 219.777344 349.207031 219.667969 351.027344 L 217.222656 351.027344 L 217.222656 350.757813 C 217.222656 349.675781 216.773438 348.859375 215.863281 348.277344 C 214.953125 347.71875 213.949219 347.410156 212.867188 347.371094 L 212.710938 347.371094 C 211.640625 347.371094 210.6875 347.632813 209.8125 348.171875 C 208.941406 348.695313 208.46875 349.503906 208.421875 350.640625 C 208.5625 351.554688 209.089844 352.199219 210 352.582031 C 210.894531 352.953125 211.949219 353.261719 213.144531 353.519531 C 213.355469 353.585938 213.566406 353.625 213.796875 353.664063 C 214.027344 353.730469 214.246094 353.78125 214.460938 353.832031 C 215.863281 354.152344 217.167969 354.660156 218.386719 355.324219 C 219.589844 355.988281 220.292969 357.160156 220.484375 358.824219 C 220.609375 360.878906 219.851563 362.429688 218.253906 363.527344 C 216.667969 364.597656 214.898438 365.148438 212.960938 365.1875 L 212.886719 365.1875 C 210.984375 365.1875 209.234375 364.632813 207.652344 363.527344 C 206.074219 362.429688 205.324219 360.714844 205.359375 358.398438 Z M 207.828125 358.398438 "/>
<path style=" stroke:none;fill-rule:evenodd;fill:white;fill-opacity:1;" d="M 0.078125 379.402344 L 3.742188 379.402344 L 9.078125 395.34375 L 14.402344 379.402344 L 18.082031 379.402344 L 18.082031 398.398438 L 15.398438 398.398438 L 15.398438 383.273438 L 10.296875 398.398438 L 7.851563 398.398438 L 2.742188 383.484375 L 2.742188 398.398438 L 0.078125 398.398438 Z M 0.078125 379.402344 "/>
<path style=" stroke:none;fill-rule:evenodd;fill:white;fill-opacity:1;" d="M 28.769531 379.402344 L 31.414063 379.402344 L 31.414063 392.871094 C 31.414063 394.25 31.902344 395.269531 32.871094 395.988281 C 33.835938 396.679688 34.929688 397.042969 36.078125 397.042969 C 37.265625 397.042969 38.335938 396.699219 39.320313 395.996094 C 40.320313 395.308594 40.832031 394.253906 40.832031 392.871094 L 40.832031 379.402344 L 43.476563 379.402344 L 43.476563 392.871094 C 43.476563 394.808594 42.734375 396.3125 41.203125 397.371094 C 39.707031 398.433594 38.03125 398.96875 36.210938 399 L 36.046875 399 C 34.324219 399 32.734375 398.496094 31.246094 397.53125 C 29.777344 396.5625 28.953125 394.988281 28.769531 392.871094 Z M 28.769531 379.402344 "/>
<path style=" stroke:none;fill-rule:evenodd;fill:white;fill-opacity:1;" d="M 54.339844 379.402344 L 56.988281 379.402344 L 56.988281 396.144531 L 66.21875 396.144531 L 66.21875 398.398438 L 54.339844 398.398438 Z M 54.339844 379.402344 "/>
<path style=" stroke:none;fill-rule:evenodd;fill:white;fill-opacity:1;" d="M 78.925781 381.433594 L 72.582031 381.433594 L 72.582031 379.402344 L 87.515625 379.402344 L 87.515625 381.433594 L 81.566406 381.433594 L 81.566406 398.398438 L 78.925781 398.398438 Z M 78.925781 381.433594 "/>
<path style=" stroke:none;fill-rule:evenodd;fill:white;fill-opacity:1;" d="M 97.546875 398.402344 L 100.011719 398.402344 L 100.011719 379.402344 L 97.546875 379.402344 Z M 97.546875 398.402344 "/>
<path style=" stroke:none;fill-rule:evenodd;fill:white;fill-opacity:1;" d="M 111.324219 379.402344 L 114.984375 379.402344 L 120.300781 395.34375 L 125.628906 379.402344 L 129.320313 379.402344 L 129.320313 398.398438 L 126.640625 398.398438 L 126.640625 383.273438 L 121.53125 398.398438 L 119.09375 398.398438 L 113.976563 383.484375 L 113.976563 398.398438 L 111.324219 398.398438 Z M 111.324219 379.402344 "/>
<path style=" stroke:none;fill-rule:evenodd;fill:white;fill-opacity:1;" d="M 140.386719 379.402344 L 153.484375 379.402344 L 153.484375 381.433594 L 142.859375 381.433594 L 142.859375 387.585938 L 153.074219 387.585938 L 153.074219 389.820313 L 142.859375 389.820313 L 142.859375 396.144531 L 153.898438 396.144531 L 153.898438 398.398438 L 140.386719 398.398438 Z M 140.386719 379.402344 "/>
<path style=" stroke:none;fill-rule:evenodd;fill:white;fill-opacity:1;" d="M 172.335938 379.402344 C 172.566406 379.402344 172.777344 379.414063 173.007813 379.453125 C 173.226563 379.464844 173.449219 379.503906 173.679688 379.535156 C 175.238281 379.867188 176.671875 380.75 177.953125 382.210938 C 179.25 383.664063 179.886719 385.726563 179.886719 388.394531 C 179.886719 388.816406 179.859375 389.253906 179.847656 389.6875 C 179.796875 390.140625 179.75 390.582031 179.671875 391.03125 C 179.382813 392.878906 178.683594 394.5625 177.574219 396.113281 C 176.445313 397.636719 174.699219 398.398438 172.335938 398.398438 L 164.746094 398.398438 L 164.746094 379.402344 Z M 172.9375 395.957031 C 174.292969 395.957031 175.347656 395.242188 176.070313 393.808594 C 176.78125 392.347656 177.132813 390.746094 177.132813 388.96875 L 177.132813 388.734375 C 177.097656 386.960938 176.671875 385.320313 175.875 383.851563 C 175.058594 382.371094 173.796875 381.632813 172.128906 381.632813 L 167.226563 381.632813 L 167.226563 395.957031 Z M 172.9375 395.957031 "/>
<path style=" stroke:none;fill-rule:evenodd;fill:white;fill-opacity:1;" d="M 190.539063 398.402344 L 193.015625 398.402344 L 193.015625 379.402344 L 190.539063 379.402344 Z M 190.539063 398.402344 "/>
<path style=" stroke:none;fill-rule:evenodd;fill:white;fill-opacity:1;" d="M 209.441406 379.402344 L 212.488281 379.402344 L 219.425781 398.398438 L 216.570313 398.398438 L 214.523438 392.871094 L 207.375 392.871094 L 205.535156 398.398438 L 202.691406 398.398438 Z M 213.71875 390.636719 L 211.074219 382.671875 L 207.976563 390.636719 Z M 213.71875 390.636719 "/>
<path style=" stroke:none;fill-rule:evenodd;fill:white;fill-opacity:1;" d="M 0.078125 413.269531 L 3.15625 413.269531 L 12.558594 428.589844 L 12.558594 413.269531 L 15.011719 413.269531 L 15.011719 432.289063 L 12.128906 432.289063 L 2.53125 417.136719 L 2.53125 432.289063 L 0.078125 432.289063 Z M 0.078125 413.269531 "/>
<path style=" stroke:none;fill-rule:evenodd;fill:white;fill-opacity:1;" d="M 26.921875 413.269531 L 29.5625 413.269531 L 29.5625 426.753906 C 29.5625 428.121094 30.058594 429.148438 31.039063 429.84375 C 32.007813 430.550781 33.085938 430.902344 34.246094 430.902344 C 35.421875 430.902344 36.496094 430.5625 37.480469 429.859375 C 38.472656 429.167969 38.96875 428.132813 38.96875 426.753906 L 38.96875 413.269531 L 41.644531 413.269531 L 41.644531 426.753906 C 41.644531 428.6875 40.882813 430.195313 39.363281 431.242188 C 37.851563 432.300781 36.183594 432.863281 34.375 432.882813 L 34.214844 432.882813 C 32.480469 432.882813 30.890625 432.378906 29.414063 431.40625 C 27.941406 430.429688 27.101563 428.878906 26.921875 426.753906 Z M 26.921875 413.269531 "/>
<path style=" stroke:none;fill-rule:evenodd;fill:white;fill-opacity:1;" d="M 55.386719 426.164063 C 55.386719 427.695313 55.886719 428.84375 56.933594 429.558594 C 57.964844 430.304688 59.09375 430.691406 60.351563 430.757813 L 60.558594 430.757813 C 61.664063 430.757813 62.679688 430.496094 63.597656 429.992188 C 64.53125 429.472656 65.070313 428.753906 65.195313 427.796875 C 65.21875 427.734375 65.226563 427.664063 65.226563 427.589844 L 65.226563 427.40625 C 65.226563 426.183594 64.722656 425.367188 63.699219 424.953125 C 62.691406 424.519531 61.527344 424.191406 60.230469 423.925781 C 60.085938 423.890625 59.933594 423.859375 59.804688 423.820313 C 59.664063 423.8125 59.519531 423.769531 59.378906 423.746094 C 57.863281 423.421875 56.453125 422.882813 55.191406 422.191406 C 53.933594 421.46875 53.378906 420.074219 53.535156 417.984375 C 53.636719 416.652344 54.25 415.5 55.386719 414.519531 C 56.511719 413.558594 58.140625 413.058594 60.285156 413.058594 C 62.441406 413.058594 64.152344 413.558594 65.445313 414.5625 C 66.738281 415.535156 67.328125 416.941406 67.230469 418.78125 L 64.78125 418.78125 L 64.78125 418.5 C 64.78125 417.425781 64.332031 416.617188 63.429688 416.023438 C 62.503906 415.460938 61.515625 415.164063 60.417969 415.121094 L 60.285156 415.121094 C 59.203125 415.121094 58.253906 415.390625 57.367188 415.917969 C 56.5 416.449219 56.03125 417.269531 55.976563 418.394531 C 56.121094 419.300781 56.652344 419.953125 57.546875 420.339844 C 58.457031 420.691406 59.519531 421.011719 60.703125 421.273438 C 60.917969 421.328125 61.125 421.382813 61.351563 421.425781 C 61.574219 421.476563 61.804688 421.546875 62.027344 421.585938 C 63.441406 421.914063 64.726563 422.421875 65.933594 423.070313 C 67.132813 423.746094 67.84375 424.902344 68.050781 426.578125 C 68.175781 428.636719 67.421875 430.199219 65.8125 431.269531 C 64.226563 432.332031 62.457031 432.894531 60.507813 432.925781 L 60.453125 432.925781 C 58.550781 432.925781 56.800781 432.386719 55.210938 431.269531 C 53.628906 430.199219 52.878906 428.484375 52.917969 426.164063 Z M 55.386719 426.164063 "/>
<path style=" stroke:none;fill-rule:evenodd;fill:white;fill-opacity:1;" d="M 84.257813 413.269531 L 87.324219 413.269531 L 94.261719 432.289063 L 91.410156 432.289063 L 89.363281 426.753906 L 82.210938 426.753906 L 80.371094 432.289063 L 77.515625 432.289063 Z M 88.546875 424.519531 L 85.910156 416.542969 L 82.8125 424.519531 Z M 88.546875 424.519531 "/>
<path style=" stroke:none;fill-rule:evenodd;fill:white;fill-opacity:1;" d="M 104.550781 413.269531 L 107.625 413.269531 L 117.015625 428.589844 L 117.015625 413.269531 L 119.480469 413.269531 L 119.480469 432.289063 L 116.601563 432.289063 L 106.988281 417.136719 L 106.988281 432.289063 L 104.550781 432.289063 Z M 104.550781 413.269531 "/>
<path style=" stroke:none;fill-rule:evenodd;fill:white;fill-opacity:1;" d="M 136.085938 415.292969 L 129.746094 415.292969 L 129.746094 413.269531 L 144.675781 413.269531 L 144.675781 415.292969 L 138.730469 415.292969 L 138.730469 432.289063 L 136.085938 432.289063 Z M 136.085938 415.292969 "/>
<path style=" stroke:none;fill-rule:evenodd;fill:white;fill-opacity:1;" d="M 158.628906 413.269531 L 161.707031 413.269531 L 168.621094 432.289063 L 165.753906 432.289063 L 163.714844 426.753906 L 156.582031 426.753906 L 154.734375 432.289063 L 151.878906 432.289063 Z M 162.921875 424.519531 L 160.265625 416.542969 L 157.183594 424.519531 Z M 162.921875 424.519531 "/>
<path style=" stroke:none;fill-rule:evenodd;fill:white;fill-opacity:1;" d="M 179.316406 413.269531 L 188.933594 413.269531 C 190.285156 413.269531 191.410156 413.71875 192.34375 414.578125 C 193.277344 415.429688 193.832031 416.652344 194.019531 418.1875 C 194.019531 418.5 194.007813 418.824219 193.96875 419.179688 C 193.949219 419.539063 193.875 419.910156 193.777344 420.253906 C 193.613281 420.746094 193.351563 421.214844 192.996094 421.679688 C 192.628906 422.144531 192.097656 422.550781 191.390625 422.882813 C 192.332031 423.355469 192.949219 423.96875 193.210938 424.710938 C 193.472656 425.46875 193.625 426.238281 193.640625 427.035156 L 193.640625 428.0625 C 193.625 428.796875 193.664063 429.488281 193.730469 430.140625 C 193.808594 430.78125 194.117188 431.292969 194.65625 431.664063 L 194.65625 432.289063 L 191.582031 432.289063 C 191.480469 431.925781 191.378906 431.585938 191.320313 431.203125 C 191.253906 430.839844 191.207031 430.476563 191.195313 430.101563 C 191.1875 429.925781 191.164063 429.75 191.164063 429.550781 C 191.160156 429.367188 191.160156 429.191406 191.160156 429.003906 L 191.160156 428.71875 C 191.113281 427.613281 190.964844 426.621094 190.699219 425.738281 C 190.457031 424.863281 189.578125 424.308594 188.113281 424.101563 L 181.777344 424.101563 L 181.777344 432.289063 L 179.316406 432.289063 Z M 188.308594 421.855469 C 188.371094 421.855469 188.425781 421.871094 188.480469 421.871094 L 188.613281 421.871094 C 189.425781 421.871094 190.074219 421.539063 190.632813 420.878906 C 191.1875 420.214844 191.480469 419.503906 191.484375 418.703125 L 191.484375 418.554688 C 191.480469 417.828125 191.164063 417.164063 190.585938 416.5625 C 190.007813 415.949219 189.03125 415.609375 187.695313 415.515625 L 181.777344 415.515625 L 181.777344 421.855469 Z M 188.308594 421.855469 "/>
<path style=" stroke:none;fill-rule:evenodd;fill:white;fill-opacity:1;" d="M 210.855469 413.269531 L 213.933594 413.269531 L 220.859375 432.289063 L 218.007813 432.289063 L 215.953125 426.753906 L 208.804688 426.753906 L 206.957031 432.289063 L 204.113281 432.289063 Z M 215.148438 424.519531 L 212.492188 416.542969 L 209.414063 424.519531 Z M 215.148438 424.519531 "/>
<g clip-path="url(#clip1)" clip-rule="nonzero">
<path style=" stroke:none;fill-rule:evenodd;fill:white;fill-opacity:1;" d="M 72.796875 193.121094 L 93.730469 193.121094 L 93.730469 172.179688 L 72.796875 172.179688 Z M 53.210938 158.691406 L 74.152344 158.691406 L 74.152344 137.75 L 53.210938 137.75 Z M 40.421875 113.539063 L 61.351563 113.539063 L 61.351563 92.605469 L 40.421875 92.605469 Z M 70.113281 130.371094 L 91.039063 130.371094 L 91.039063 109.433594 L 70.113281 109.433594 Z M 111.945313 107.433594 L 132.882813 107.433594 L 132.882813 86.5 L 111.945313 86.5 Z M 80.917969 97.328125 L 101.855469 97.328125 L 101.855469 76.386719 L 80.917969 76.386719 Z M 67.410156 69.691406 L 88.347656 69.691406 L 88.347656 48.753906 L 67.410156 48.753906 Z M 106.539063 50.757813 L 127.476563 50.757813 L 127.476563 29.839844 L 106.539063 29.839844 Z M 7.324219 107.894531 C 7.324219 101.046875 7.96875 94.363281 9.191406 87.894531 L 24.917969 87.894531 L 24.917969 66.964844 L 15.367188 66.964844 C 18.855469 58.425781 23.425781 50.417969 28.882813 43.160156 L 28.882813 55.28125 L 49.816406 55.28125 L 49.816406 34.351563 L 36.265625 34.351563 C 55.953125 13.175781 84.070313 -0.046875 115.269531 -0.046875 C 174.882813 -0.046875 223.199219 48.269531 223.199219 107.894531 C 223.199219 167.5 174.882813 215.808594 115.269531 215.808594 C 55.664063 215.808594 7.324219 167.5 7.324219 107.894531 Z M 7.324219 107.894531 "/>
</g>
</g>
</svg>
